<svg xmlns="http://www.w3.org/2000/svg" version="1.1" xmlns:xlink="http://www.w3.org/1999/xlink" xmlns:svgjs="http://svgjs.dev/svgjs" width="1000" height="684" viewBox="0 0 1000 684"><g transform="matrix(1,0,0,1,-0.4538834951456465,-0.9677872340424187)"><svg viewBox="0 0 206 141" data-background-color="#001f33" preserveAspectRatio="xMidYMid meet" height="684" width="1000" xmlns="http://www.w3.org/2000/svg" xmlns:xlink="http://www.w3.org/1999/xlink"><g id="tight-bounds" transform="matrix(1,0,0,1,0.09350000000000591,0.19949999999997203)"><svg viewBox="0 0 205.81295486631018 140.60052000000002" height="140.60052000000002" width="205.81295486631018"><g><svg viewBox="0 0 205.81295486631018 140.60052000000002" height="140.60052000000002" width="205.81295486631018"><g><svg viewBox="0 0 205.81295486631018 140.60052000000002" height="140.60052000000002" width="205.81295486631018"><g><path d="M0 140.601v-140.601h205.813v140.601z" fill="#ffffff" stroke="transparent" stroke-width="0" rx="0%" data-fill-palette-color="tertiary"></path><path d="M3.283 137.317v-134.034h199.247v134.034z" fill="#1ba098" stroke="transparent" stroke-width="0" rx="0%" data-fill-palette-color="quaternary"></path><path d="M9.85 130.751v-120.901h186.113v120.901z" fill="#ffffff" stroke="transparent" stroke-width="0" data-fill-palette-color="tertiary"></path></g><g transform="matrix(1,0,0,1,19.69974,19.69974)" id="textblocktransform"><svg viewBox="0 0 166.4134748663102 101.20104000000002" height="101.20104000000002" width="166.4134748663102" id="textblock"><g><svg viewBox="0 0 166.4134748663102 101.20104000000002" height="101.20104000000002" width="166.4134748663102"><g transform="matrix(1,0,0,1,0,0)"><svg width="166.4134748663102" viewBox="3.8299999237060547 -36.040000915527344 60.05999755859375 36.53000259399414" height="101.20104000000002" data-palette-color="#1ba098"><path d="M3.83-35.55L9.59-35.55 18.87-6.54 28.15-35.55 33.91-35.55 33.91 0 29.44 0 29.44-13.84 29.86-27.71 20.56 0 17.14 0 7.89-27.61 8.3-13.84 8.3 0 3.83 0 3.83-35.55ZM59.37-11.28L63.89-11.28Q63.6-5.57 60.68-2.54 57.76 0.49 52.44 0.49L52.44 0.49Q47.09 0.49 43.94-3.58 40.79-7.64 40.79-14.6L40.79-14.6 40.79-21.04Q40.79-27.98 44.03-32.01 47.26-36.04 52.85-36.04L52.85-36.04Q58.01-36.04 60.83-32.95 63.64-29.86 63.89-24.12L63.89-24.12 59.37-24.12Q59.08-28.47 57.54-30.32 56-32.18 52.85-32.18L52.85-32.18Q49.22-32.18 47.26-29.33 45.31-26.49 45.31-21L45.31-21 45.31-14.48Q45.31-9.08 47.13-6.2 48.95-3.32 52.44-3.32 55.93-3.32 57.47-5.05 59.01-6.79 59.37-11.28L59.37-11.28Z" opacity="1" transform="matrix(1,0,0,1,0,0)" fill="#1ba098" class="wordmark-text-0" data-fill-palette-color="quaternary" id="text-0"></path></svg></g></svg></g></svg></g></svg></g><g></g></svg></g><defs></defs></svg><rect width="205.81295486631018" height="140.60052000000002" fill="none" stroke="none" visibility="hidden"></rect></g></svg></g></svg>